<svg
      xmlns="http://www.w3.org/2000/svg"
      fillRule="evenodd"
      strokeLinejoin="round"
      strokeMiterlimit="2"
      clipRule="evenodd"
      viewBox="0 0 108 78"
    >
      <path
        fill="#333"
        fillRule="nonzero"
        d="M65.046 1.385a4.728 4.728 0 016.687 0l33.911 33.911c.115.115.224.236.328.363.032.038.059.08.091.121.062.083.124.163.184.248.041.062.076.127.115.19.041.067.083.135.121.206.038.071.071.142.103.216.033.068.065.133.095.201.032.077.056.154.083.23.023.068.05.136.071.204.026.086.044.172.065.255.014.065.032.127.047.192.023.112.038.224.05.336l.018.122c.032.316.032.635 0 .951a5.753 5.753 0 01-.009.053 4.942 4.942 0 01-.062.405l-.03.115a5.823 5.823 0 01-.085.334c-.012.039-.027.077-.042.118a4.46 4.46 0 01-.118.322 6.475 6.475 0 01-.201.42l-.038.062c-.062.112-.13.225-.201.334l-.018.027a4.638 4.638 0 01-.558.676L71.727 75.923a4.715 4.715 0 01-3.342 1.385 4.73 4.73 0 01-3.342-8.072L90.899 43.38H4.728A4.726 4.726 0 010 38.652a4.726 4.726 0 014.728-4.727h86.171L65.046 8.069a4.724 4.724 0 010-6.684z"
      ></path>
    </svg>