<svg width="100%" height="100%" viewBox="0 0 417 417" version="1.1" xmlns="http://www.w3.org/2000/svg" xmlns:xlink="http://www.w3.org/1999/xlink" xml:space="preserve" xmlns:serif="http://www.serif.com/" style="fill-rule:evenodd;clip-rule:evenodd;stroke-linejoin:round;stroke-miterlimit:2;"><g id="book"><rect x="112.847" y="355.903" width="243.056" height="17.361" style="fill:#a2f435;"/><path d="M17.361,364.583l-17.361,0l0,-312.5c0.029,-28.561 23.522,-52.054 52.083,-52.083l121.528,-0l0,17.361l-121.528,0c-19.048,0 -34.722,15.674 -34.722,34.722l0,312.5Z" style="fill:#a2f435;fill-rule:nonzero;"/><path d="M355.903,416.667l-303.82,-0c-28.572,-0 -52.083,-23.512 -52.083,-52.084c-0,-28.572 23.511,-52.083 52.083,-52.083l303.82,0c4.762,0 8.68,3.919 8.68,8.681l0,86.805c0,4.762 -3.918,8.681 -8.68,8.681Zm-303.82,-86.806c-19.048,0 -34.722,15.674 -34.722,34.722c0,19.048 15.674,34.723 34.722,34.723l295.139,-0l0,-69.445l-295.139,0Z" style="fill:#a2f435;fill-rule:nonzero;"/><rect x="52.083" y="8.681" width="17.361" height="312.5" style="fill:#a2f435;"/><path d="M121.528,104.167l-17.361,-0l-0,-43.403c-0,-4.762 3.918,-8.681 8.68,-8.681l26.042,0l-0,17.361l-17.361,0l-0,34.723Z" style="fill:#a2f435;fill-rule:nonzero;"/><path d="M138.889,173.611l-26.042,0c-4.762,0 -8.68,-3.918 -8.68,-8.68l-0,-34.723l17.361,0l-0,26.042l17.361,0l-0,17.361Z" style="fill:#a2f435;fill-rule:nonzero;"/><rect x="104.167" y="121.528" width="34.722" height="17.361" style="fill:#a2f435;"/><rect x="104.167" y="199.653" width="17.361" height="17.361" style="fill:#a2f435;"/><rect x="138.889" y="199.653" width="17.361" height="17.361" style="fill:#a2f435;"/><rect x="78.125" y="355.903" width="17.361" height="17.361" style="fill:#a2f435;"/><path d="M286.458,260.417c-71.43,-0 -130.208,-58.778 -130.208,-130.209c-0,-71.43 58.778,-130.208 130.208,-130.208c71.431,-0 130.209,58.778 130.209,130.208c-0.081,71.4 -58.809,130.128 -130.209,130.209Zm0,-243.056c-61.906,0 -112.847,50.941 -112.847,112.847c0,61.906 50.941,112.848 112.847,112.848c61.906,-0 112.848,-50.942 112.848,-112.848c-0.072,-61.879 -50.968,-112.776 -112.848,-112.847Z" style="fill:#a2f435;fill-rule:nonzero;"/><rect x="347.222" y="277.778" width="17.361" height="43.403" style="fill:#a2f435;"/><path d="M286.458,104.167c-14.286,-0 -26.041,-11.756 -26.041,-26.042c-0,-14.286 11.755,-26.042 26.041,-26.042c14.286,0 26.042,11.756 26.042,26.042c0,14.286 -11.756,26.042 -26.042,26.042Zm0,-34.723c-4.762,0 -8.68,3.919 -8.68,8.681c-0,4.762 3.918,8.681 8.68,8.681c4.762,-0 8.681,-3.919 8.681,-8.681c-0,-4.762 -3.919,-8.681 -8.681,-8.681Z" style="fill:#a2f435;fill-rule:nonzero;"/><path d="M321.181,208.333l-34.723,0c-4.762,0 -8.68,-3.918 -8.68,-8.68l-0,-60.764l-26.042,-0l0,-17.361l34.722,-0c4.762,-0 8.681,3.918 8.681,8.68l-0,60.764l26.042,0l-0,17.361Z" style="fill:#a2f435;fill-rule:nonzero;"/></g></svg>