<svg width="100%" height="100%" viewBox="0 0 434 458" version="1.1" xmlns="http://www.w3.org/2000/svg" xmlns:xlink="http://www.w3.org/1999/xlink" xml:space="preserve" xmlns:serif="http://www.serif.com/" style="fill-rule:evenodd;clip-rule:evenodd;stroke-linejoin:round;stroke-miterlimit:2;"><g id="head"><path d="M387.01,178.058c-4.79,-55.348 -37.55,-106.387 -83.447,-136.968c-25.154,-16.755 -54.271,-27.032 -84.205,-30.926c-82.44,-10.69 -169.272,25.516 -200.37,106.499c-26.704,69.613 -0.379,138.691 47.5,191.437c17.271,19.02 19.666,54.787 19.666,78.872l-0,48.861c0.005,7.449 6.136,13.576 13.585,13.576l176.783,0c7.112,-0.007 13.077,-5.593 13.551,-12.689c0.654,-9.613 1.722,-18.09 1.722,-18.09c3.696,-15.85 17.229,-28.565 45.949,-23.948c30.15,4.833 49.18,-4.152 50.868,-24.232c0.56,-6.624 0.922,-63.203 0.922,-63.203c1.438,-0.862 10.897,-2.705 24.671,-5.832c6.296,-1.448 10.795,-7.099 10.795,-13.559c-0,-3.705 -1.48,-7.261 -4.11,-9.872c-31.322,-31.012 -35.526,-45.441 -36.301,-48.551c-3.885,-15.445 3.825,-35.112 2.421,-51.341l-0,-0.034Z" style="fill:none;fill-rule:nonzero;stroke:#a2f435;stroke-width:16.67px;"/><path d="M326.726,146.941c-4.297,5.447 -9.191,6.511 -11.778,6.653c-0.704,0.033 -1.264,0.621 -1.264,1.326c-0,0.119 0.016,0.238 0.047,0.353c1.332,4.689 2.68,17.596 -20.41,22.626c-21.654,4.711 -34.753,21.567 -43.298,30.13c-6.576,6.582 -15.455,9.604 -24.317,11.606c-9.06,2.035 -18.032,3.84 -25.179,10.263c-7.525,6.785 -18.135,44.133 -19.939,50.627c-0.155,0.569 -0.676,0.967 -1.266,0.966l-11.12,0c-0.622,0 -1.164,-0.439 -1.293,-1.048l-5.388,-25.495c-0.225,-1.097 -52.434,3.225 -56.451,-20.097c-0.1,-0.641 -0.657,-1.119 -1.305,-1.119c-0.151,0 -0.301,0.026 -0.444,0.077c-5.02,1.81 -21.122,6.275 -29.815,-7.208c-6.165,-9.56 -4.527,-18.485 -3.666,-21.562c0.172,-0.632 -0.153,-1.302 -0.756,-1.558c-4.429,-1.914 -20.433,-10.893 -18.262,-40.441c1.754,-23.817 17.85,-34.376 15.598,-38.04c-6.484,-10.559 -0.85,-28.072 12.452,-31.983c0.535,-0.159 0.92,-0.634 0.965,-1.191l0.548,-6.209c1.847,-21.891 30.588,-35.763 50.126,-26.663c0.187,0.091 0.392,0.138 0.6,0.138c0.6,0 1.134,-0.393 1.313,-0.966c2.444,-7.762 7.383,-9.873 8.698,-10.641c6.062,-3.412 13.926,-2.99 20.185,-0.417c0.504,0.209 1.088,0.082 1.458,-0.318c1.781,-1.904 9.076,-7.965 21.161,-7.965c12.392,0 18.695,6.034 20.898,7.718c0.402,0.312 0.949,0.365 1.403,0.137c2.784,-1.426 12.968,-5.99 23.162,-2.474c7.673,2.655 12.057,9.67 13.444,12.221c0.292,0.541 0.914,0.821 1.512,0.68c3.656,-0.872 16.295,-3.291 26.916,1.503c11.219,5.074 14.721,12.413 15.615,14.876c0.182,0.499 0.653,0.839 1.184,0.855c2.433,0.099 9.147,0.686 13.296,4.18c7.333,6.165 6.609,11.025 5.771,13.11c-0.245,0.628 0.036,1.348 0.641,1.645c7.995,4.09 14.486,10.621 18.53,18.644c8.013,15.879 4.807,29.51 0.411,35.105l0.017,-0.044Z" style="fill:#a2f435;fill-rule:nonzero;stroke:#a2f435;stroke-width:4.17px;"/></g></svg>