<svg
      xmlns="http://www.w3.org/2000/svg"
      fillRule="evenodd"
      strokeLinejoin="round"
      strokeMiterlimit="2"
      clipRule="evenodd"
      viewBox="0 0 419 307"
    >
      <g fill="#a2f435" stroke="#a2f435" strokeWidth="1.46">
        <path
          fillRule="nonzero"
          d="M375.729 232.174H42.396c-2.54 0-4.631-2.09-4.631-4.63V5.36c0-2.541 2.091-4.631 4.631-4.631h333.333c2.54 0 4.631 2.09 4.631 4.631v222.184c0 2.54-2.091 4.63-4.631 4.63zm-328.703-9.261h324.073V9.95H47.026v212.963z"
        ></path>
        <path
          fillRule="nonzero"
          d="M338.693 306.247H79.432C36.269 306.198.769 270.69.729 227.528c0-2.541 2.09-4.631 4.631-4.631h407.405c2.541 0 4.631 2.09 4.631 4.631-.04 43.162-35.54 78.67-78.703 78.719zM10.145 232.191c2.47 36.248 32.954 64.763 69.287 64.811h259.261c36.333-.048 66.817-28.563 69.287-64.811H10.145z"
        ></path>
        <path
          fillRule="nonzero"
          d="M246.099 269.211h-74.056a4.646 4.646 0 01-4.143-2.556l-18.522-37.036a4.635 4.635 0 01-.487-2.067c0-2.54 2.09-4.63 4.63-4.63h111.1c2.54 0 4.629 2.09 4.629 4.63 0 .717-.167 1.425-.487 2.067l-18.522 37.036a4.644 4.644 0 01-4.142 2.556zm-71.216-9.261h68.359l13.892-27.776h-96.135l13.884 27.776z"
        ></path>
        <text
          x="122.923"
          y="159.114"
          fontFamily="'ArialMT', 'Arial', sans-serif"
          fontSize="119.198"
        >
          &lt;/&gt;
        </text>
      </g>
    </svg>